<svg xmlns="http://www.w3.org/2000/svg" width="64" height="64" viewBox="0 0 64 64">
  <!-- 背景圆 -->
  <circle cx="32" cy="32" r="30" fill="#5C94FC"/>
  
  <!-- 马里奥帽子红色 -->
  <path d="M14 32 Q14 18 32 18 Q50 18 50 32 L50 34 L14 34 Z" fill="#E52521" stroke="#8B0000" stroke-width="2"/>
  <!-- 帽子边白色圈 -->
  <ellipse cx="32" cy="32" rx="20" ry="4" fill="white" stroke="#8B0000" stroke-width="1.5"/>
  <!-- M标志圆 -->
  <circle cx="32" cy="26" r="6" fill="white" stroke="#8B0000" stroke-width="1.5"/>
  <text x="32" y="30" font-family="Arial" font-size="10" font-weight="bold" fill="#E52521" text-anchor="middle">M</text>
  
  <!-- 脸 -->
  <ellipse cx="32" cy="42" rx="14" ry="12" fill="#FFDAB9"/>
  <!-- 眼睛 -->
  <circle cx="27" cy="40" r="2" fill="#2C3E50"/>
  <circle cx="37" cy="40" r="2" fill="#2C3E50"/>
  <!-- 鼻子 -->
  <ellipse cx="32" cy="44" rx="3" ry="2.5" fill="#FF9966"/>
  <!-- 胡子 -->
  <path d="M24 47 Q27 50 32 48 Q37 50 40 47 L40 49 Q37 52 32 51 Q27 52 24 49 Z" fill="#8B4513"/>
  <!-- 嘴 -->
  <path d="M29 52 Q32 54 35 52" stroke="#C84C0C" stroke-width="1.5" fill="none"/>
</svg>
